<svg width="18" height="18" viewBox="0 0 18 18" fill="none" xmlns="http://www.w3.org/2000/svg">
<path d="M3 18C2.45 18 1.97917 17.8042 1.5875 17.4125C1.19583 17.0208 1 16.55 1 16C1 15.45 1.19583 14.9792 1.5875 14.5875C1.97917 14.1958 2.45 14 3 14C3.55 14 4.02083 14.1958 4.4125 14.5875C4.80417 14.9792 5 15.45 5 16C5 16.55 4.80417 17.0208 4.4125 17.4125C4.02083 17.8042 3.55 18 3 18V18M15 18C15 16.05 14.6333 14.2292 13.9 12.5375C13.1667 10.8458 12.1667 9.36667 10.9 8.1C9.63333 6.83333 8.15417 5.83333 6.4625 5.1C4.77083 4.36667 2.95 4 1 4V1C3.36667 1 5.575 1.44167 7.625 2.325C9.675 3.20833 11.475 4.425 13.025 5.975C14.575 7.525 15.7917 9.325 16.675 11.375C17.5583 13.425 18 15.6333 18 18H15V18M9 18C9 16.8833 8.79167 15.8458 8.375 14.8875C7.95833 13.9292 7.38333 13.0833 6.65 12.35C5.91667 11.6167 5.07083 11.0417 4.1125 10.625C3.15417 10.2083 2.11667 10 1 10V7C2.53333 7 3.9625 7.2875 5.2875 7.8625C6.6125 8.4375 7.775 9.225 8.775 10.225C9.775 11.225 10.5625 12.3875 11.1375 13.7125C11.7125 15.0375 12 16.4667 12 18H9V18" fill="#97CBFF"/>
</svg>
